<svg width="509" height="573" viewBox="0 0 509 573" fill="none" xmlns="http://www.w3.org/2000/svg">
<g clip-path="url(#clip0_91_184)">
<path d="M321.842 97.2022L345.102 76.6775H321.377L321.842 97.2022Z" fill="#002DE3"/>
<path d="M446.389 79.0011L330.65 79.0011C312.94 79.0011 298.583 64.6589 298.583 46.9669V32.0342C298.583 14.3422 312.94 4.57764e-05 330.65 4.57764e-05L446.389 4.57764e-05C464.099 4.57764e-05 478.456 14.3422 478.456 32.0342V46.9669C478.456 64.6589 464.099 79.0011 446.389 79.0011Z" fill="#002DE3"/>
<path d="M364.484 46.4711C360.631 46.4711 357.507 43.3503 357.507 39.5005C357.507 35.6507 360.631 32.5298 364.484 32.5298C368.338 32.5298 371.462 35.6507 371.462 39.5005C371.462 43.3503 368.338 46.4711 364.484 46.4711Z" fill="white"/>
<path d="M388.519 46.4711C384.665 46.4711 381.541 43.3503 381.541 39.5005C381.541 35.6507 384.665 32.5298 388.519 32.5298C392.373 32.5298 395.497 35.6507 395.497 39.5005C395.497 43.3503 392.373 46.4711 388.519 46.4711Z" fill="white"/>
<path d="M412.554 46.4711C408.7 46.4711 405.576 43.3503 405.576 39.5005C405.576 35.6507 408.7 32.5298 412.554 32.5298C416.408 32.5298 419.532 35.6507 419.532 39.5005C419.532 43.3503 416.408 46.4711 412.554 46.4711Z" fill="white"/>
</g>
<path d="M431.911 337.398L401.05 326.565L377.424 393.736L408.285 404.568L431.911 337.398Z" fill="#1F161E"/>
<path d="M3.31984 468.696C3.31984 553.248 41.3106 571.004 79.1023 571.004C174.831 571.004 299.373 516.64 306.405 514.542C304.194 523.436 290.241 748.877 290.241 750.177C293.558 752.009 318.988 753.59 327.546 752.009C329.757 746.529 397.004 478.388 397.004 471.326C397.004 464.264 391.21 453.523 369.296 451.973C360.03 451.315 231.132 447.526 231.132 447.526" fill="#1F161E"/>
<path d="M325.351 410.232C354.193 439.885 482.984 646.877 481.842 651.715C480.7 656.553 451.089 666.806 444.828 664.044C418.27 652.417 255.211 457.053 248.863 454.103C242.515 451.153 233.003 452.292 227.336 453.104C212.596 435.703 245.59 415.039 325.351 410.232Z" fill="#0F1828"/>
<path d="M195.153 173.81C238.517 173.81 250.986 214.828 254.574 230.316C266.046 279.764 234.11 467.667 230.411 472.844C199.029 516.672 19.637 520.566 2.14074 501.583C-15.3555 482.601 76.6659 173.81 195.153 173.81Z" fill="#375FFF"/>
<path d="M188.664 182.46C187.49 186.221 218.097 195.735 219.271 191.996L231.142 153.942L200.557 144.406L188.664 182.46Z" fill="#F8CDBA"/>
<path d="M219.005 162.947C216.016 162.017 194.289 164.517 192.828 169.208L200.557 144.406C205.318 145.889 219.005 162.947 219.005 162.947Z" fill="#1F161E"/>
<path d="M236.081 169.053C260.899 169.053 281.017 148.955 281.017 124.162C281.017 99.37 260.899 79.2719 236.081 79.2719C211.263 79.2719 191.144 99.37 191.144 124.162C191.144 148.955 211.263 169.053 236.081 169.053Z" fill="#F8CDBA"/>
<path d="M280.902 147.81C281.577 145.653 278.753 142.853 274.596 141.557C270.44 140.261 266.524 140.96 265.85 143.118C265.176 145.276 267.999 148.076 272.156 149.372C276.312 150.667 280.228 149.968 280.902 147.81Z" fill="#FA9E9F"/>
<path d="M233.653 133.092C234.327 130.934 231.504 128.134 227.347 126.839C223.19 125.543 219.274 126.242 218.6 128.4C217.926 130.558 220.749 133.357 224.906 134.653C229.063 135.949 232.979 135.25 233.653 133.092Z" fill="#FA9E9F"/>
<path d="M257.586 131.663C258.361 134.096 262.968 144.76 254.308 145.8" stroke="#0F1828" stroke-width="1.2" stroke-miterlimit="10" stroke-linecap="round"/>
<path d="M236.059 150.889C233.844 150.114 231.186 146.309 230.145 143.189" stroke="#0F1828" stroke-width="1.2" stroke-miterlimit="10" stroke-linecap="round"/>
<path d="M249.679 65.2671C237.831 63.7847 203.436 53.5633 195.618 46.4613C191.92 48.4083 177.546 61.3068 165.83 78.763L182.463 95.4669L161.445 85.7764C155.906 94.8435 152.099 104.858 150.216 115.313C155.643 129.937 172.674 135.955 175.885 136.353C196.593 138.964 204.543 106.817 214.975 102.834C232.692 96.0422 253.555 113.675 279.799 112.569C285.624 100.688 278.05 68.8291 249.679 65.2671Z" fill="#1F161E"/>
<path d="M194.887 127.105C200.624 127.105 205.274 122.459 205.274 116.729C205.274 110.998 200.624 106.352 194.887 106.352C189.151 106.352 184.5 110.998 184.5 116.729C184.5 122.459 189.151 127.105 194.887 127.105Z" fill="#F8CDBA"/>
<path d="M150.216 279.033C148.002 292.883 140.826 423.661 158.012 436.383C194.821 463.618 364.8 430.298 390.557 420.763C393.348 411.647 390.557 382.687 390.557 382.687C380.635 382.288 255.46 381.094 247.996 371.624C240.532 362.155 239.647 284.742 240.843 276.002" fill="#375FFF"/>
<path d="M407.876 423.794C421.172 423.794 431.95 413.027 431.95 399.744C431.95 386.462 421.172 375.695 407.876 375.695C394.581 375.695 383.802 386.462 383.802 399.744C383.802 413.027 394.581 423.794 407.876 423.794Z" fill="#F8CDBA"/>
<path d="M247.974 371.691C240.422 362.155 239.624 284.808 240.82 276.069" stroke="#0F1828" stroke-linecap="round" stroke-linejoin="round"/>
<path d="M236.214 446.206C201.531 448.131 171.212 446.206 158.012 436.383C150.482 430.829 147.625 402.665 146.939 371.58" stroke="#0F1828" stroke-linecap="round" stroke-linejoin="round"/>
<defs>
<clipPath id="clip0_91_184">
<rect width="179.873" height="97.2023" fill="white" transform="matrix(-1 0 0 1 478.456 0)"/>
</clipPath>
</defs>
</svg>
