<svg width="2058" height="2133" viewBox="0 0 2058 2133" fill="none" xmlns="http://www.w3.org/2000/svg">
<path d="M806.5 0.999968C651.7 11.2 506.3 61.9 373.5 151.8C332.6 179.4 304.5 203.1 258 248.7C206.1 299.6 178.1 332.8 144.5 383C92.2001 461.1 54.3001 543.4 30.7001 629.5C10.3001 704.1 1.40012 768.5 0.300117 851C-0.699882 924.4 4.10012 976.8 17.6001 1039.5C59.8001 1235.5 168 1409.4 326.3 1535.4C446.5 1631.1 586.5 1691.4 741.5 1714.4C767.6 1718.3 778 1719.1 811 1719.9C863.2 1721.2 937.7 1718.8 977 1714.5C1021.9 1709.5 1091.6 1692.5 1147 1672.9C1213 1649.5 1270.9 1620.9 1332.4 1581.2L1353.3 1567.8L1360.5 1575.1C1364.5 1579.2 1425.7 1642.8 1496.6 1716.5C1796.4 2028.3 1873.5 2107.5 1883.8 2114.4C1910.1 2131.7 1941.5 2136.4 1975.3 2127.9C2001.2 2121.4 2024.1 2104.8 2039.4 2081.6C2051 2064 2055.3 2051.2 2057.1 2029.5C2059.9 1995.7 2055 1982.6 2025.9 1946.5C1998.9 1913 1964.1 1875.9 1786.5 1691.5C1596.8 1494.4 1539.3 1434.4 1526.7 1419.8L1520.9 1413.1L1534.3 1396.3C1575 1345.2 1603.4 1300.6 1632 1243C1679.8 1146.5 1707.5 1046 1717.7 932.5C1720.3 903.6 1720.3 817.3 1717.7 788.5C1711.1 714.7 1699.5 657.3 1678.5 594.5C1645.9 496.7 1594.2 401.1 1531.9 323.5C1496.1 278.9 1453.4 235.5 1409.5 199C1311.6 117.6 1195.5 58.3 1072 26.6C1026.1 14.9 980 7.09997 928 2.39997C907.7 0.499968 827.4 -0.300032 806.5 0.999968ZM889.3 227C927.2 229.3 952.7 232.4 983.5 238.6C1183.2 278.9 1349.7 409.5 1435.5 593.1C1459.8 645.1 1479.3 708 1486.5 757.5C1491.3 790.4 1494 832.8 1494 873.5C1494 914.3 1492 936.2 1484.9 973.5C1460.1 1104.4 1402.1 1215.2 1309.8 1308.1C1218.1 1400.4 1106.7 1459.9 977.8 1485.5C946 1491.8 925 1493.7 878 1494.6C809.7 1496 760.9 1491.2 708 1478C661.3 1466.3 624.5 1452.7 580.5 1431C517.2 1399.7 466.1 1363.5 416.1 1314.5C364.7 1264 322 1205.3 290.5 1141.5C277.5 1115.3 269.1 1094.6 258.5 1062.7C234.1 989.5 226.6 941.7 226.5 859.5C226.5 817.5 227.2 806.2 231.6 773.2C252 620.9 330.2 478.9 449.4 377.5C540.5 300.1 651.3 249.9 769 232.6C784.4 230.3 813.7 227.4 827.5 226.7C842.5 225.9 873.6 226.1 889.3 227Z" fill="#B2B5B7"/>
</svg>
