<svg width="590" height="800" viewBox="0 0 590 800" fill="none" xmlns="http://www.w3.org/2000/svg">
<g clip-path="url(#clip0_127_100)">
<path d="M501.204 557.883C501.842 573.16 504.745 789.111 504.745 789.111L603.558 1075.73C600.676 1082.5 573.687 1091.69 569.838 1090.18C565.988 1088.67 406.323 798.711 406.323 798.711" fill="#1F161E"/>
<path d="M314.673 557.883C306.562 563.251 316.258 1114.09 316.258 1114.09C319.532 1117.91 345.655 1117.35 350.02 1114.09C354.384 1110.83 396.832 851.583 401.197 837.318C405.561 823.052 501.204 557.883 501.204 557.883C501.204 557.883 326.716 549.914 314.673 557.883Z" fill="#FADB93"/>
<path d="M113.794 262.407C108.483 258.67 85.9618 231.211 83.3062 221.983C80.6506 212.754 78.6537 177.967 104.922 185.874C131.189 193.781 119.332 221.653 137.859 239.222" fill="#F8CDBA"/>
<path d="M105.003 160.986L81.2406 180.01L122.57 231.931L146.333 212.907L105.003 160.986Z" fill="#1F161E"/>
<path d="M439.219 239.222C445.683 245.25 511.785 356.9 511.785 370.877C511.785 384.854 496.531 469.624 487.761 487.709C478.991 505.795 439.219 239.222 439.219 239.222Z" fill="#1F161E"/>
<path d="M400.332 208.151C495.481 208.151 507.915 544.422 501.204 557.945C494.493 571.468 328.116 569.898 314.632 557.945C301.148 545.991 312.82 208.151 400.332 208.151Z" fill="#002DE3"/>
<path d="M383.225 219.382C383.225 225.369 416.163 225.823 416.163 219.382V179.247H383.225V219.382Z" fill="#F8CDBA"/>
<path d="M416.204 203.175C416.204 199.603 407.969 187.278 401.793 189.363C409.554 186.617 413.383 177.244 416.204 179.164V203.175Z" fill="#0F1828"/>
<path d="M385.078 192.749C408.737 192.749 427.917 173.514 427.917 149.786C427.917 126.058 408.737 106.823 385.078 106.823C361.418 106.823 342.238 126.058 342.238 149.786C342.238 173.514 361.418 192.749 385.078 192.749Z" fill="#F8CDBA"/>
<path d="M341.764 159.283C345.71 159.283 348.908 157.61 348.908 155.546C348.908 153.482 345.71 151.809 341.764 151.809C337.819 151.809 334.621 153.482 334.621 155.546C334.621 157.61 337.819 159.283 341.764 159.283Z" fill="#FA9E9F"/>
<path d="M386.683 159.283C390.628 159.283 393.827 157.61 393.827 155.546C393.827 153.482 390.628 151.809 386.683 151.809C382.738 151.809 379.54 153.482 379.54 155.546C379.54 157.61 382.738 159.283 386.683 159.283Z" fill="#FA9E9F"/>
<path d="M359.16 147.804C357.842 149.724 350.925 157.755 358.213 160.997" stroke="#0F1828" stroke-width="0.69" stroke-miterlimit="10" stroke-linecap="round"/>
<path d="M372.664 170.37C374.723 170.37 378.119 167.706 379.869 165.291" stroke="#0F1828" stroke-width="0.69" stroke-miterlimit="10" stroke-linecap="round"/>
<path d="M426.023 124.743C426.023 109.837 405.293 98.7302 390.862 98.7302C367.888 98.7302 339.891 104.346 335.28 105.977C327.539 108.681 326.222 116.96 326.222 119.727C326.222 131.329 330.339 138.555 343.185 140.372C344.064 136.279 345.579 132.35 347.673 128.728C351.227 127.358 355.15 127.292 358.748 128.542C362.001 129.678 389.174 142.519 409.287 142.519C411.963 146.297 417.851 169.358 416.121 179.144C422.009 179.495 432.858 160.274 433.414 150.24C433.539 146.797 432.86 143.372 431.431 140.239C430.001 137.106 427.86 134.352 425.179 132.196C425.447 130.029 426.023 125.92 426.023 124.743Z" fill="#0F1828"/>
<path d="M411.181 161.286C416.388 161.286 420.609 157.052 420.609 151.83C420.609 146.608 416.388 142.375 411.181 142.375C405.973 142.375 401.752 146.608 401.752 151.83C401.752 157.052 405.973 161.286 411.181 161.286Z" fill="#F8CDBA"/>
<path d="M425.344 298.99C401.752 335.14 274.201 392.163 260.779 392.163C225.186 392.163 119.805 274.876 113.794 262.365C120.732 254.933 135.513 239.181 137.818 239.181C140.124 239.181 240.44 308.714 259.4 308.714C278.359 308.714 368.218 245.312 379.911 242.463" fill="#002DE3"/>
<path d="M348.125 260.61C363.668 250.928 376.04 243.392 379.91 242.463" stroke="#0F1828" stroke-linecap="round" stroke-linejoin="round"/>
<path d="M321.425 368.049C362.598 348.209 411.613 320.09 425.344 299.031" stroke="#0F1828" stroke-linecap="round" stroke-linejoin="round"/>
<path d="M314.776 419.208C315.62 411.136 357.328 349.757 365.377 345.009C356.834 349.778 324.493 366.232 321.425 368.049C319.634 372.859 314.776 419.208 314.776 419.208Z" fill="#1F161E"/>
</g>
<g clip-path="url(#clip1_127_100)">
<path d="M193.823 121.517L165.038 96.0161H194.399L193.823 121.517Z" fill="#375FFF"/>
<path d="M39.6859 98.9031L182.923 98.9031C204.841 98.9031 222.609 81.084 222.609 59.103V40.5501C222.609 18.5691 204.841 0.750031 182.923 0.750031L39.6859 0.750031C17.768 0.750031 3.05176e-05 18.5691 3.05176e-05 40.5501V59.103C3.05176e-05 81.084 17.768 98.9031 39.6859 98.9031Z" fill="#375FFF"/>
<path d="M141.05 58.4871C145.819 58.4871 149.686 54.6097 149.686 49.8266C149.686 45.0435 145.819 41.166 141.05 41.166C136.28 41.166 132.414 45.0435 132.414 49.8266C132.414 54.6097 136.28 58.4871 141.05 58.4871Z" fill="white"/>
<path d="M111.305 58.4871C116.074 58.4871 119.94 54.6097 119.94 49.8266C119.94 45.0435 116.074 41.166 111.305 41.166C106.535 41.166 102.669 45.0435 102.669 49.8266C102.669 54.6097 106.535 58.4871 111.305 58.4871Z" fill="white"/>
<path d="M81.5594 58.4871C86.3288 58.4871 90.1951 54.6097 90.1951 49.8266C90.1951 45.0435 86.3288 41.166 81.5594 41.166C76.79 41.166 72.9237 45.0435 72.9237 49.8266C72.9237 54.6097 76.79 58.4871 81.5594 58.4871Z" fill="white"/>
</g>
<defs>
<clipPath id="clip0_127_100">
<rect width="526.263" height="1042.73" fill="white" transform="translate(81.2476 98.7302)"/>
</clipPath>
<clipPath id="clip1_127_100">
<rect width="222.609" height="120.767" fill="white" transform="translate(0 0.75)"/>
</clipPath>
</defs>
</svg>
